<svg data-v-fde0c5aa="" xmlns="http://www.w3.org/2000/svg" viewBox="0 0 300 300" class="icon"><!----><defs data-v-fde0c5aa=""><!----></defs><rect data-v-fde0c5aa="" fill="none" x="0" y="0" width="300px" height="300px" class="logo-background-square"></rect><!----><defs data-v-fde0c5aa=""><!----></defs><g data-v-fde0c5aa="" id="cb3e69fd-addb-4dec-a62a-33b17481518a" fill="#EBC246" stroke="none" transform="matrix(2.3122603159609474,0,0,2.3122603159609474,34.38697979166608,34.38583201459083)"><path d="M71.31 50.001l-.002-.003a24.627 24.627 0 0 0 3.337-12.377c0-10.312-6.495-19.6-16.17-23.144V2.428H53.83v10.866a24.844 24.844 0 0 0-7.66 0V2.428h-4.646V14.477C31.85 18.021 25.355 27.309 25.355 37.62a24.62 24.62 0 0 0 3.337 12.379l-.001.002.001.002a24.617 24.617 0 0 0-3.336 12.377c0 10.312 6.494 19.6 16.168 23.142v12.05h4.646V86.5c1.259.196 2.546.302 3.83.302s2.571-.105 3.83-.302v11.073h4.645V85.523c9.675-3.542 16.17-12.829 16.17-23.143 0-4.349-1.155-8.627-3.337-12.377l.002-.002zM41.524 39.232v.003a24.77 24.77 0 0 0-9.761 6.579A19.793 19.793 0 0 1 30 37.62c0-7.731 4.519-14.813 11.524-18.106v19.718zm-9.76 14.954a24.751 24.751 0 0 0 9.76 6.58v19.719C34.519 77.192 30 70.111 30 62.381c0-2.852.596-5.608 1.764-8.195zm14.406 7.782v-4.715l-.101-.02a20.085 20.085 0 0 1-4.362-1.414l-.006-.003A20.203 20.203 0 0 1 34.311 50a20.164 20.164 0 0 1 7.391-5.815l.005-.002a19.985 19.985 0 0 1 4.363-1.414l.101-.02v-24.74a20.141 20.141 0 0 1 7.66-.001v24.741l.101.02a19.87 19.87 0 0 1 4.367 1.417l.026.012a20.159 20.159 0 0 1 7.364 5.803 20.205 20.205 0 0 1-7.391 5.815 20.01 20.01 0 0 1-4.367 1.417l-.101.02v24.533c-2.515.49-5.147.489-7.66 0V61.968zm22.067-16.154a24.776 24.776 0 0 0-9.763-6.58v-19.72c7.005 3.292 11.523 10.374 11.523 18.106a19.777 19.777 0 0 1-1.76 8.194zM58.475 60.77v-.003a24.75 24.75 0 0 0 9.763-6.581 19.805 19.805 0 0 1 1.761 8.195c0 7.731-4.519 14.813-11.523 18.104V60.77z"></path></g><!----></svg>