<?xml version="1.0" encoding="UTF-8"?>
<svg width="244px" height="41px" viewBox="0 0 244 41" version="1.1" xmlns="http://www.w3.org/2000/svg" xmlns:xlink="http://www.w3.org/1999/xlink">
    <!-- Generator: Sketch 52.5 (67469) - http://www.bohemiancoding.com/sketch -->
    <title>logo</title>
    <desc>Created with Sketch.</desc>
    <g id="Page-1" stroke="none" stroke-width="1" fill="none" fill-rule="evenodd">
        <g id="logo">
            <path d="M3.73,4.372 C3.73,3.41999524 4.06599664,2.60800336 4.738,1.936 C5.41000336,1.26399664 6.22199524,0.928 7.174,0.928 C8.12600476,0.928 8.93799664,1.26399664 9.61,1.936 C10.2820034,2.60800336 10.618,3.41999524 10.618,4.372 C10.618,5.32400476 10.2820034,6.12899671 9.61,6.787 C8.93799664,7.44500329 8.12600476,7.774 7.174,7.774 C6.22199524,7.774 5.41000336,7.44500329 4.738,6.787 C4.06599664,6.12899671 3.73,5.32400476 3.73,4.372 Z M10.282,10.63 L10.282,31.294 C10.282,33.3100101 9.67300609,34.9059941 8.455,36.082 C7.23699391,37.2580059 5.24201386,38.2799957 2.47,39.148 L0.034,34.528 C1.54600756,33.9959973 2.59599706,33.3870034 3.184,32.701 C3.77200294,32.0149966 4.066,31.1260055 4.066,30.034 L4.066,10.63 L10.282,10.63 Z M23.608,10.042 C26.800016,10.042 29.1659923,11.0919895 30.706,13.192 C32.2460077,15.2920105 33.016,17.7839856 33.016,20.668 L33.016,22.684 L19.744,22.684 C20.0240014,23.8320057 20.6049956,24.7279968 21.487,25.372 C22.3690044,26.0160032 23.4959931,26.338 24.868,26.338 C25.7920046,26.338 26.652996,26.2330011 27.451,26.023 C28.249004,25.812999 29.1099954,25.4840022 30.034,25.036 L31.84,29.404 C30.8039948,30.1880039 29.5440074,30.7339985 28.06,31.042 C26.5759926,31.3500015 25.4000043,31.504 24.532,31.504 C21.0879828,31.504 18.3230104,30.5730093 16.237,28.711 C14.1509896,26.8489907 13.108,24.2240169 13.108,20.836 C13.108,17.5319835 14.0739903,14.9070097 16.006,12.961 C17.9380097,11.0149903 20.4719843,10.042 23.608,10.042 Z M23.44,15.166 C22.4879952,15.166 21.6760034,15.4739969 21.004,16.09 C20.3319966,16.7060031 19.898001,17.5739944 19.702,18.694 L27.136,18.694 C26.939999,17.6299947 26.5340031,16.7760032 25.918,16.132 C25.3019969,15.4879968 24.4760052,15.166 23.44,15.166 Z M41.932,1.348 L41.932,17.56 L50.29,10.042 C50.8780029,10.7700036 51.472997,11.4979964 52.075,12.226 C52.677003,12.9540036 53.2719971,13.6679965 53.86,14.368 L48.19,19.114 C49.394006,21.1020099 50.6189938,23.0899901 51.865,25.078 C53.1110062,27.0660099 54.335994,29.0399902 55.54,31 L48.61,31 L43.822,22.768 C43.5139985,23.0480014 43.1990016,23.3209987 42.877,23.587 C42.5549984,23.8530013 42.2400015,24.1119987 41.932,24.364 L41.932,31 L35.8,31 L35.8,1.81 L41.932,1.348 Z M61.18,31.672 L61.894,29.95 L54.502,11.386 L60.718,10.63 L62.986,16.678 C63.7420038,18.6940101 64.4839964,20.7099899 65.212,22.726 L69.496,10.63 L75.88,10.63 L66.808,33.562 C66.1359966,35.2140083 64.9740083,36.6349941 63.322,37.825 C61.6699917,39.015006 59.9060094,39.8339978 58.03,40.282 L55.888,35.284 C56.896005,34.891998 57.9459945,34.4020029 59.038,33.814 C60.1300055,33.2259971 60.8439983,32.5120042 61.18,31.672 Z M83.578,1.348 L83.578,31 L77.446,31 L77.446,1.81 L83.578,1.348 Z M93.754,1.348 L93.754,31 L87.622,31 L87.622,1.81 L93.754,1.348 Z" id="jekyll" fill="#6D1CD3"></path>
            <path d="M104.198,26.548 C104.842003,26.548 105.499997,26.4010015 106.172,26.107 C106.844003,25.8129985 107.487997,25.3860028 108.104,24.826 L108.104,22.264 L104.576,22.264 C103.763996,22.264 103.134002,22.5019976 102.686,22.978 C102.237998,23.4540024 102.014,24.0139968 102.014,24.658 C102.014,25.1620025 102.223998,25.6029981 102.644,25.981 C103.064002,26.3590019 103.581997,26.548 104.198,26.548 Z M105.542,10.042 C108.090013,10.042 110.182992,10.7699927 111.821,12.226 C113.459008,13.6820073 114.278,15.5579885 114.278,17.854 L114.278,31 L111.254,31 L109.91,29.32 C109.209996,29.9360031 108.349005,30.4539979 107.327,30.874 C106.304995,31.2940021 105.262005,31.504 104.198,31.504 C101.677987,31.504 99.8090061,30.8810062 98.591,29.635 C97.3729939,28.3889938 96.764,26.7580101 96.764,24.742 C96.764,22.6139894 97.4849928,21.0040055 98.927,19.912 C100.369007,18.8199945 102.251988,18.274 104.576,18.274 L108.062,18.274 C108.006,17.4059957 107.705003,16.7200025 107.159,16.216 C106.612997,15.7119975 105.892004,15.46 104.996,15.46 C104.127996,15.46 103.162005,15.5859987 102.098,15.838 C101.033995,16.0900013 100.110004,16.3979982 99.326,16.762 L97.688,11.89 C98.5560043,11.3859975 99.8019919,10.9520018 101.426,10.588 C103.050008,10.2239982 104.421994,10.042 105.542,10.042 Z M127.73,26.296 C128.262003,26.296 128.849997,26.1840011 129.494,25.96 C130.138003,25.7359989 130.725997,25.4560017 131.258,25.12 L131.258,16.468 C130.725997,16.0479979 130.124003,15.7050013 129.452,15.439 C128.779997,15.1729987 128.136003,15.04 127.52,15.04 C125.867992,15.04 124.713003,15.6559938 124.055,16.888 C123.396997,18.1200062 123.068,19.3799936 123.068,20.668 C123.068,22.1520074 123.403997,23.4609943 124.076,24.595 C124.748003,25.7290057 125.965991,26.296 127.73,26.296 Z M137.474,1.348 L137.474,31 L134.282,31 L132.812,28.984 C131.999996,29.6840035 130.999006,30.2789976 129.809,30.769 C128.618994,31.2590025 127.380006,31.504 126.092,31.504 C123.011985,31.504 120.674008,30.4750103 119.078,28.417 C117.481992,26.3589897 116.684,23.8040153 116.684,20.752 C116.684,17.6719846 117.516992,15.0890104 119.183,13.003 C120.849008,10.9169896 123.263984,9.874 126.428,9.874 C127.128003,9.874 127.911996,9.98599888 128.78,10.21 C129.648004,10.4340011 130.473996,10.7559979 131.258,11.176 L131.258,1.81 L137.474,1.348 Z M146.81,31 L138.998,11.386 L145.256,10.63 L149.75,22.684 L154.034,10.63 L160.376,10.63 L152.354,31 L146.81,31 Z M168.368,26.548 C169.012003,26.548 169.669997,26.4010015 170.342,26.107 C171.014003,25.8129985 171.657997,25.3860028 172.274,24.826 L172.274,22.264 L168.746,22.264 C167.933996,22.264 167.304002,22.5019976 166.856,22.978 C166.407998,23.4540024 166.184,24.0139968 166.184,24.658 C166.184,25.1620025 166.393998,25.6029981 166.814,25.981 C167.234002,26.3590019 167.751997,26.548 168.368,26.548 Z M169.712,10.042 C172.260013,10.042 174.352992,10.7699927 175.991,12.226 C177.629008,13.6820073 178.448,15.5579885 178.448,17.854 L178.448,31 L175.424,31 L174.08,29.32 C173.379997,29.9360031 172.519005,30.4539979 171.497,30.874 C170.474995,31.2940021 169.432005,31.504 168.368,31.504 C165.847987,31.504 163.979006,30.8810062 162.761,29.635 C161.542994,28.3889938 160.934,26.7580101 160.934,24.742 C160.934,22.6139894 161.654993,21.0040055 163.097,19.912 C164.539007,18.8199945 166.421988,18.274 168.746,18.274 L172.232,18.274 C172.176,17.4059957 171.875003,16.7200025 171.329,16.216 C170.782997,15.7119975 170.062004,15.46 169.166,15.46 C168.297996,15.46 167.332005,15.5859987 166.268,15.838 C165.203995,16.0900013 164.280004,16.3979982 163.496,16.762 L161.858,11.89 C162.726004,11.3859975 163.971992,10.9520018 165.596,10.588 C167.220008,10.2239982 168.591994,10.042 169.712,10.042 Z M194.126,9.874 C196.926014,9.874 198.920994,10.678992 200.111,12.289 C201.301006,13.8990081 201.896,15.8939881 201.896,18.274 L201.896,31 L195.722,31 L195.722,18.526 C195.722,17.4059944 195.435003,16.545003 194.861,15.943 C194.286997,15.340997 193.496005,15.04 192.488,15.04 C191.815997,15.04 191.067004,15.2149983 190.241,15.565 C189.414996,15.9150018 188.666003,16.3139978 187.994,16.762 L187.994,31 L181.82,31 L181.82,10.63 L185.012,10.63 L186.65,12.688 C187.546004,11.9039961 188.693993,11.2390027 190.094,10.693 C191.494007,10.1469973 192.837994,9.874 194.126,9.874 Z M215.348,15.208 C213.975993,15.208 212.863004,15.7329948 212.009,16.783 C211.154996,17.8330053 210.728,19.1839917 210.728,20.836 C210.728,22.4880083 211.154996,23.810995 212.009,24.805 C212.863004,25.799005 213.975993,26.296 215.348,26.296 C216.216004,26.296 216.999996,26.198001 217.7,26.002 C218.400004,25.805999 219.225995,25.4840022 220.178,25.036 L221.9,29.404 C220.891995,30.1880039 219.716007,30.7339985 218.372,31.042 C217.027993,31.3500015 215.922004,31.504 215.054,31.504 C211.749983,31.504 209.13901,30.5520095 207.221,28.648 C205.30299,26.7439905 204.344,24.1400165 204.344,20.836 C204.344,17.5319835 205.30299,14.9070097 207.221,12.961 C209.13901,11.0149903 211.749983,10.042 215.054,10.042 C215.922004,10.042 217.020993,10.1959985 218.351,10.504 C219.681007,10.8120015 220.863995,11.3579961 221.9,12.142 L220.178,16.51 C219.225995,16.0619978 218.400004,15.7330011 217.7,15.523 C216.999996,15.312999 216.216004,15.208 215.348,15.208 Z M233.756,10.042 C236.948016,10.042 239.313992,11.0919895 240.854,13.192 C242.394008,15.2920105 243.164,17.7839856 243.164,20.668 L243.164,22.684 L229.892,22.684 C230.172001,23.8320057 230.752996,24.7279968 231.635,25.372 C232.517004,26.0160032 233.643993,26.338 235.016,26.338 C235.940005,26.338 236.800996,26.2330011 237.599,26.023 C238.397004,25.812999 239.257995,25.4840022 240.182,25.036 L241.988,29.404 C240.951995,30.1880039 239.692007,30.7339985 238.208,31.042 C236.723993,31.3500015 235.548004,31.504 234.68,31.504 C231.235983,31.504 228.47101,30.5730093 226.385,28.711 C224.29899,26.8489907 223.256,24.2240169 223.256,20.836 C223.256,17.5319835 224.22199,14.9070097 226.154,12.961 C228.08601,11.0149903 230.619984,10.042 233.756,10.042 Z M233.588,15.166 C232.635995,15.166 231.824003,15.4739969 231.152,16.09 C230.479997,16.7060031 230.046001,17.5739944 229.85,18.694 L237.284,18.694 C237.087999,17.6299947 236.682003,16.7760032 236.066,16.132 C235.449997,15.4879968 234.624005,15.166 233.588,15.166 Z" id="advance" fill="#1C3ED3"></path>
        </g>
    </g>
</svg>